<?xml version="1.0" encoding="UTF-8"?>
<!DOCTYPE svg PUBLIC "-//W3C//DTD SVG 1.1//EN" "http://www.w3.org/Graphics/SVG/1.1/DTD/svg11.dtd">
<svg xmlns="http://www.w3.org/2000/svg" version="1.1" width="204px" height="192px" style="shape-rendering:geometricPrecision; text-rendering:geometricPrecision; image-rendering:optimizeQuality; fill-rule:evenodd; clip-rule:evenodd" xmlns:xlink="http://www.w3.org/1999/xlink">
<g><path style="opacity:1" fill="#fdfdfd" d="M -0.5,-0.5 C 67.5,-0.5 135.5,-0.5 203.5,-0.5C 203.5,63.5 203.5,127.5 203.5,191.5C 135.5,191.5 67.5,191.5 -0.5,191.5C -0.5,127.5 -0.5,63.5 -0.5,-0.5 Z"/></g>
<g><path style="opacity:1" fill="#6d6d6d" d="M 73.5,6.5 C 77.1515,5.83453 80.9848,5.5012 85,5.5C 90.4324,5.28142 95.5991,5.94809 100.5,7.5C 91.5281,6.65287 82.5281,6.31953 73.5,6.5 Z"/></g>
<g><path style="opacity:1" fill="#090909" d="M 73.5,6.5 C 82.5281,6.31953 91.5281,6.65287 100.5,7.5C 131.083,15.5841 148.917,35.2508 154,66.5C 155.412,86.3721 150.245,104.205 138.5,120C 142.987,125.155 147.487,130.322 152,135.5C 164.627,148.293 177.46,160.96 190.5,173.5C 187.133,178.054 183.133,181.554 178.5,184C 160.986,166.319 143.319,148.819 125.5,131.5C 88.0786,153.683 55.5786,148.016 28,114.5C 25.3333,109.167 22.6667,103.833 20,98.5C 17.8761,92.6736 16.7094,86.6736 16.5,80.5C 16.6123,73.8198 16.9457,67.1531 17.5,60.5C 25.3576,31.3094 44.0242,13.3094 73.5,6.5 Z"/></g>
<g><path style="opacity:1" fill="#fdfdfd" d="M 73.5,13.5 C 101.653,10.8293 123.486,21.1626 139,44.5C 150.255,68.1737 148.589,90.8404 134,112.5C 110.437,139.058 82.937,143.891 51.5,127C 22.9387,104.317 16.4387,76.4833 32,43.5C 42.1021,28.2161 55.9355,18.2161 73.5,13.5 Z"/></g>
<g><path style="opacity:1" fill="#747474" d="M 17.5,60.5 C 16.9457,67.1531 16.6123,73.8198 16.5,80.5C 15.8362,78.1903 15.5029,75.6903 15.5,73C 15.3938,68.5731 16.0605,64.4064 17.5,60.5 Z"/></g>
</svg>
